<?xml version="1.0" encoding="utf-8"?>
<!-- Generator: Adobe Illustrator 19.2.1, SVG Export Plug-In . SVG Version: 6.00 Build 0)  -->
<svg version="1.1" id="Слой_1" xmlns="http://www.w3.org/2000/svg" xmlns:xlink="http://www.w3.org/1999/xlink" x="0px" y="0px"
	 viewBox="0 0 1140 80" style="enable-background:new 0 0 1140 80;" xml:space="preserve">
<style type="text/css">
	.st0{fill:#0880AD;}
	.st1{fill:#FFFFFF;}
	.st2{fill:#B2B2B2;}
	.st3{fill:#B5C1CA;}
	.st4{fill:#08C1C6;}
	.st5{fill:#B3B2B4;}
	.st6{fill:#7B838B;}
	.st7{fill:#FF3E81;}
	.st8{fill:none;stroke:#323232;stroke-width:1.5;stroke-miterlimit:10;}
	.st9{fill:none;stroke:#000000;stroke-width:1.5;stroke-miterlimit:10;}
	.st10{fill:#9F9F9F;}
	.st11{fill:none;stroke:#08C1C6;stroke-width:2;stroke-miterlimit:10;}
	.st12{fill:#5A5A5A;}
	.st13{display:none;opacity:0.28;fill:#B2B2B2;enable-background:new    ;}
	.st14{fill:#5D5D5D;}
	.st15{fill:#323232;}
	.st16{fill:none;stroke:#FFFFFF;stroke-width:2;stroke-miterlimit:10;}
</style>
<circle class="st0" cx="161.3" cy="19.6" r="8"/>
<path class="st1" d="M160.6,21.7c0-0.6,0.1-1,0.2-1.3s0.4-0.6,0.9-1c0.3-0.3,0.6-0.6,0.8-0.9s0.3-0.6,0.3-1s-0.1-0.7-0.3-1
	c-0.2-0.2-0.5-0.3-0.9-0.3s-0.6,0.1-0.9,0.3c-0.2,0.2-0.4,0.5-0.4,0.9h-1.5c0-0.8,0.2-1.3,0.8-1.8c0.5-0.4,1.2-0.6,2-0.6
	c0.9,0,1.6,0.2,2.1,0.7s0.7,1.1,0.7,1.9c0,0.5-0.2,1-0.5,1.5s-0.7,0.9-1.2,1.3c-0.2,0.2-0.4,0.4-0.5,0.6s-0.1,0.5-0.1,0.8
	L160.6,21.7L160.6,21.7L160.6,21.7z M162.2,24.3h-1.6v-1.5h1.6V24.3z"/>
<path class="st2" d="M246.5,13.6h2v13h-2V13.6z M234.5,12.6h13v2h-13V12.6z M234.5,25.6h13v2h-13V25.6z M233.5,22.6h2v4h-2V22.6z
	 M233.5,13.6h2v4h-2V13.6z M233.5,19.6h8.9l0.1,1h-9V19.6z M241.5,16.6h-2l3,3.5l2-0.1L241.5,16.6z M242.6,20.1l-3,3.5h2l2.9-3.5
	H242.6z"/>
<path class="st3" d="M329.3,18.2l-5.8-0.2l-2.1-5.5l-2,5.5l-5.8,0.2l4.5,3.7l-1.5,5.6l4.8-3.3l4.9,3.3l-1.5-5.6L329.3,18.2
	L329.3,18.2z"/>
<path class="st4" d="M369.3,18.2l-5.8-0.2l-2.1-5.5l-2,5.5l-5.8,0.2l4.5,3.7l-1.5,5.6l4.8-3.3l4.9,3.3l-1.5-5.6L369.3,18.2
	L369.3,18.2z"/>
<path class="st3" d="M1129.3,18.2l-5.8-0.2l-2.1-5.5l-2,5.5l-5.8,0.2l4.5,3.7l-1.5,5.6l4.8-3.3l4.9,3.3l-1.5-5.6L1129.3,18.2
	L1129.3,18.2z"/>
<path class="st5" d="M394.4,16.8c-0.6,0-1.1,0.5-1.1,1.1v4.2c0,0.6,0.5,1.1,1.1,1.1s1.1-0.5,1.1-1.1v-4.2
	C395.4,17.3,395,16.8,394.4,16.8z M407.2,16.8c-0.6,0-1.1,0.5-1.1,1.1v4.2c0,0.6,0.5,1.1,1.1,1.1s1.1-0.5,1.1-1.1v-4.2
	C408.3,17.3,407.8,16.8,407.2,16.8z M396.1,24.6c0,0.5,0.4,0.8,0.8,0.8h1v2.4c0,0.6,0.5,1.1,1.1,1.1s1.1-0.5,1.1-1.1v-2.4h1.7v2.4
	c0,0.6,0.5,1.1,1.1,1.1s1.1-0.5,1.1-1.1v-2.4h0.9c0.5,0,0.8-0.4,0.8-0.8v-7.8h-9.5L396.1,24.6L396.1,24.6z M403.1,12.8l0.9-1.3
	c0.1-0.1,0-0.2,0-0.2c-0.1,0-0.2,0-0.2,0.1l-0.9,1.3c-0.6-0.2-1.3-0.4-2-0.4s-1.4,0.1-2,0.4l-0.9-1.3c-0.1-0.1-0.1-0.1-0.2-0.1
	s-0.1,0.1,0,0.2l0.9,1.3c-1.4,0.7-2.4,1.9-2.5,3.3h9.5C405.4,14.7,404.4,13.5,403.1,12.8z M398.8,14.8c-0.3,0-0.5-0.2-0.5-0.5
	s0.2-0.5,0.5-0.5s0.5,0.2,0.5,0.5S399.1,14.8,398.8,14.8z M402.9,14.8c-0.3,0-0.5-0.2-0.5-0.5s0.2-0.5,0.5-0.5s0.5,0.2,0.5,0.5
	S403.2,14.8,402.9,14.8z M446,19.6c-0.5-2.4,1.8-3.8,1.8-3.8s-0.9-1.3-2.4-1.6s-2.2,0.1-3,0.4c-0.7,0.3-1.1,0.3-1.1,0.3
	c-1.1,0-1.8-1.1-3.9-0.6c-1.4,0.4-2.9,2-3.1,3.9c-0.3,1.9,0.3,4.4,1.4,6.3c1.1,1.9,2.2,2.6,3,2.6s1.6-0.6,2.6-0.7s1.6,0.3,2.5,0.6
	c0.9,0.3,1.3,0,2.4-0.9c1.1-0.8,2.1-3.5,2.1-3.5S446.5,22,446,19.6z M443.9,12.7c1-1.1,0.7-2.7,0.7-2.7s-1.5,0.3-2.5,1.3
	s-0.8,2.6-0.8,2.6S442.9,13.8,443.9,12.7z"/>
<path class="st6" d="M207.3,14h-12c-1.7,0-3,1.3-3,3v6c0,1.7,1.3,3,3,3h12c1.7,0,3-1.3,3-3v-6C210.3,15.3,209,14,207.3,14z"/>
<path class="st1" d="M199.3,17v6l6-3L199.3,17z"/>
<path id="Rectangle_1" class="st7" d="M480.5,17.7C480.5,17.7,480.5,17.6,480.5,17.7c0-4-8-4.8-8,0.9c0,3.9,8,9,8,9s8-5.1,8-8.9
	C488.5,13,480.5,13.8,480.5,17.7z"/>
<path id="Rectangle_1_2_" class="st8" d="M280.5,17.9C280.5,17.9,280.5,17.8,280.5,17.9c0-3.8-7.5-4.5-7.5,0.8
	c0,3.6,7.5,8.4,7.5,8.4s7.5-4.8,7.5-8.4C288,13.5,280.5,14.3,280.5,17.9z"/>
<circle class="st9" cx="519.5" cy="19.1" r="5.5"/>
<rect x="524" y="23.6" width="2" height="2"/>
<rect x="525" y="24.6" width="2" height="2"/>
<polygon class="st10" points="561,20.3 556.8,16.1 555.3,17.5 561,23.2 566.7,17.5 565.2,16.1 "/>
<rect x="241.9" y="19.6" class="st2" width="0.8" height="1"/>
<g id="Shape_1">
	<g>
		<path class="st6" d="M605,23.6h-7c-0.3,0-1,0.7-1,1v3c0,0.3,0.6,1,0.9,1h7.1c0.3,0,1-0.7,1-1l-0.1-2.8l0.1-0.2
			C606,24.3,605.4,23.6,605,23.6z M598,15.6h7c0.3,0,0.9-0.5,0.9-0.9v-1.5c0-0.3-0.3-0.6-0.6-0.6h-7.4c-0.3,0-0.6,0.3-0.6,0.6v1.5
			C597.3,15.1,597.7,15.6,598,15.6z M605.7,22.2l0.4-0.6C606,21.6,605.9,21.7,605.7,22.2z M608.1,16.4l-0.1,0.2h-13l0.2-0.2
			c-1.1,0-2.2,1.1-2.2,2.1v4.7c0,1.1,0.9,2.3,2,2.3l0.6-0.2c0.3,0,0.4-0.5,0.4-0.8v-1c0-0.7,0.3-2,1-2h9c0.7,0,1,1.2,1,1.9v0.2v1
			c0,0.3,0.3,0.8,0.6,0.8h0.5c1.1,0,2.2-1.1,2.2-2.1v-4.7C610.2,17.5,609.2,16.4,608.1,16.4z M608,20.6h-2v-2h2V20.6z"/>
	</g>
</g>
<g id="Rounded_Rectangle_8">
	<g>
		<path class="st6" d="M646.5,13.6h-11c-1.7,0-3,1.3-3,3v6c0,1.5,1.1,2.7,2.5,2.9l2.1,2.1c0.3,0.3,0.8,0.3,1.1,0l2.1-2.1h6.3
			c1.7,0,3-1.3,3-2.9v-6C649.5,15,648.2,13.6,646.5,13.6z M642.5,23.6h-7c0-0.1,0-0.6,0-1s0-1,0-1h7c0,0,0,0.6,0,1
			S642.5,23.7,642.5,23.6z M646.5,19.6c0,0.4,0,1,0,1h-11c0,0,0-0.6,0-1s0-1.1,0-1h11C646.5,18.6,646.5,19.2,646.5,19.6z
			 M646.5,17.6h-11c0,0,0-0.6,0-1s0-1,0-1h11c0,0,0,0.6,0,1S646.5,17.7,646.5,17.6z"/>
	</g>
</g>
<circle class="st2" cx="681.5" cy="15.5" r="4"/>
<path class="st2" d="M681.5,21.5c-6.1,0-8,4-8,4v2h16v-2C689.5,25.5,687.6,21.5,681.5,21.5z"/>
<circle class="st11" cx="721" cy="19.5" r="11"/>
<polygon class="st4" points="726,19.5 718,24.5 718,14.5 "/>
<path class="st12" d="M760.8,23.7c-0.1,0.2-0.1,0.3,0.1,0.3c0.3,0,1.4-0.8,1.9-1.3c0.2,0,0.4,0.2,0.4,0.5c-0.8,1-2.6,2.4-4.2,2.4
	c-0.5,0-0.9-0.6-0.9-0.8c0-0.2,0.1-0.5,0.2-0.9l2.1-5c0.1-0.2,0.1-0.3,0-0.3c-0.3,0-1.5,0.8-1.8,1.1c-0.2,0-0.4-0.3-0.3-0.5
	c1.1-1.3,3-2.3,4-2.3c0.4,0,0.9,0.4,0.9,0.9c0,0.2-0.1,0.6-0.3,0.9L760.8,23.7z M763.1,12.6c0.7,0,1.1,0.4,1.1,1.2
	c0,0.9-0.6,1.6-1.5,1.6c-0.7,0-1.2-0.5-1.2-1.1C761.5,13.4,762.2,12.6,763.1,12.6z"/>
<path class="st2" d="M807,22.5v-3h-2.2c-0.1-0.5-0.4-1.1-0.6-1.5l1.6-1.6l-2.1-2.1l-1.6,1.6c-0.5-0.3-1-0.5-1.5-0.6V13h-3v2.2
	c-0.5,0.1-1.1,0.4-1.5,0.6l-1.6-1.6l-2.1,2.1l1.6,1.6c-0.3,0.5-0.5,1-0.6,1.5h-2.2v3h2.2c0.1,0.5,0.4,1.1,0.6,1.5l-1.6,1.6l2.1,2.1
	l1.6-1.6c0.5,0.3,1,0.5,1.5,0.6V29h3v-2.2c0.5-0.1,1.1-0.4,1.5-0.6l1.6,1.6l2.1-2.1l-1.6-1.6c0.3-0.5,0.5-1,0.6-1.5L807,22.5
	L807,22.5z M799,24c-1.7,0-3-1.3-3-3s1.3-3,3-3s3,1.3,3,3S800.7,24,799,24z"/>
<path class="st1" d="M839,11.9c-4.5,0-8.1,3.6-8.1,8.1s3.6,8.1,8.1,8.1s8.1-3.6,8.1-8.1S843.5,11.9,839,11.9z M839,25.2
	c-0.6,0-1.1-0.5-1.1-1.1s0.5-1.1,1.1-1.1s1.1,0.5,1.1,1.1S839.6,25.2,839,25.2z M839.4,20.9c-0.2,0.5-0.7,0.6-0.8,0
	c-0.2-0.6-0.9-3.1-0.9-4.7c0-2.1,2.6-2.1,2.6,0C840.3,17.8,839.6,20.3,839.4,20.9z"/>
<rect class="st13" width="1100" height="40"/>
<path d="M881,23.2l-6,4.8V12h12v16L881,23.2z M886,13h-10v13l5-4l5,4V13z"/>
<path class="st4" d="M921,23.2l-6,4.8V12h12v16L921,23.2z"/>
<path class="st1" d="M122.4,34.7c-6.4,0-11.6-5.2-11.6-11.6s5.2-11.6,11.6-11.6S134,16.7,134,23.1S128.8,34.7,122.4,34.7z
	 M122.4,14.2c-4.9,0-9,4-9,9c0,4.9,4,9,9,9c4.9,0,9-4,9-9C131.3,18.2,127.3,14.2,122.4,14.2z M119.2,27.8v-9.4l8.3,4.7L119.2,27.8z
	 M104,17.4c-1,1.1-1.6,2.4-1.6,4.1v11.8h-3V13h3v3.4c0.5-1.1,1.3-2,2.4-2.7s2.3-1,3.8-1c0.5,0,0.9,0,1.2,0.1V16
	c-0.5-0.1-1.2-0.2-2-0.2C106.3,15.8,105,16.3,104,17.4z M86.8,22.3H81v11h-3.1V5.2h9c2.4,0,4.4,0.8,6.1,2.4s2.5,3.7,2.5,6.1
	s-0.8,4.5-2.5,6.1C91.2,21.5,89.1,22.3,86.8,22.3z M90.6,9.7c-1.1-1.1-2.4-1.6-4-1.6h-5.7v11.3h5.7c1.6,0,2.9-0.5,4-1.6
	s1.6-2.4,1.6-4S91.7,10.8,90.6,9.7z M60.4,33.9c-1.8,0-3.3-0.3-4.5-1s-2.1-1.6-2.7-2.6v3h-3V5.2h3V16c0.6-1,1.5-1.9,2.7-2.6
	s2.7-1,4.5-1c2.9,0,5.3,1,7.3,3.1s3,4.6,3,7.7s-1,5.6-3,7.7C65.7,32.9,63.3,33.9,60.4,33.9z M65.6,17.4c-1.4-1.5-3.1-2.3-5.2-2.3
	c-2.2,0-4,0.8-5.4,2.3s-2.2,3.4-2.2,5.7s0.7,4.2,2.2,5.7c1.4,1.5,3.2,2.3,5.4,2.3c2.1,0,3.8-0.8,5.2-2.3s2.1-3.4,2.1-5.7
	C67.7,20.9,67,19,65.6,17.4z M42.7,30.3c-0.6,1-1.5,1.9-2.7,2.6s-2.7,1-4.5,1c-2.9,0-5.3-1-7.3-3.1s-3-4.6-3-7.7s1-5.6,3-7.7
	s4.4-3.1,7.3-3.1c1.8,0,3.3,0.3,4.5,1s2.1,1.6,2.7,2.6v-3h3v20.3h-3V30.3z M40.9,17.4c-1.4-1.5-3.2-2.3-5.4-2.3
	c-2.1,0-3.8,0.8-5.2,2.3s-2.1,3.4-2.1,5.7s0.7,4.2,2.1,5.7s3.1,2.3,5.2,2.3c2.2,0,4-0.8,5.4-2.3s2.2-3.4,2.2-5.7
	C43,20.9,42.3,19,40.9,17.4z M17.7,33.3h-3.1V8.1H7V5.2h18.4v2.9h-7.7V33.3z"/>
<path class="st14" d="M104,57.4c-1,1.1-1.6,2.4-1.6,4.1v11.8h-3V53h3v3.4c0.5-1.1,1.3-2,2.4-2.7s2.3-1,3.8-1c0.5,0,0.9,0,1.2,0.1V56
	c-0.5-0.1-1.2-0.2-2-0.2C106.3,55.8,105,56.3,104,57.4z M86.8,62.3H81v11h-3.1V45.2h9c2.4,0,4.4,0.8,6.1,2.4
	c1.7,1.6,2.5,3.7,2.5,6.1c0,2.4-0.8,4.5-2.5,6.1C91.2,61.5,89.1,62.3,86.8,62.3z M90.6,49.7c-1.1-1.1-2.4-1.6-4-1.6h-5.7v11.3h5.7
	c1.6,0,2.9-0.5,4-1.6s1.6-2.4,1.6-4S91.7,50.8,90.6,49.7z M60.4,73.9c-1.8,0-3.3-0.3-4.5-1s-2.1-1.6-2.7-2.6v3h-3V45.2h3V56
	c0.6-1,1.5-1.9,2.7-2.6c1.2-0.7,2.7-1,4.5-1c2.9,0,5.3,1,7.3,3.1s3,4.6,3,7.7s-1,5.6-3,7.7C65.7,72.9,63.3,73.9,60.4,73.9z
	 M65.6,57.4c-1.4-1.5-3.1-2.3-5.2-2.3c-2.2,0-4,0.8-5.4,2.3s-2.2,3.4-2.2,5.7c0,2.3,0.7,4.2,2.2,5.7c1.4,1.5,3.2,2.3,5.4,2.3
	c2.1,0,3.8-0.8,5.2-2.3s2.1-3.4,2.1-5.7C67.7,60.9,67,59,65.6,57.4z M42.7,70.3c-0.6,1-1.5,1.9-2.7,2.6s-2.7,1-4.5,1
	c-2.9,0-5.3-1-7.3-3.1s-3-4.6-3-7.7s1-5.6,3-7.7c2-2.1,4.4-3.1,7.3-3.1c1.8,0,3.3,0.3,4.5,1s2.1,1.6,2.7,2.6v-3h3v20.3h-3V70.3z
	 M40.9,57.4c-1.4-1.5-3.2-2.3-5.4-2.3c-2.1,0-3.8,0.8-5.2,2.3s-2.1,3.4-2.1,5.7c0,2.3,0.7,4.2,2.1,5.7s3.1,2.3,5.2,2.3
	c2.2,0,4-0.8,5.4-2.3s2.2-3.4,2.2-5.7C43,60.9,42.3,59,40.9,57.4z M17.7,73.3h-3.1V48.1H7v-2.9h18.4v2.9h-7.7V73.3z"/>
<g>
	<g>
		<path class="st15" d="M960,16L960,16c-1.1,0-2-0.9-2-2l0,0c0-1.1,0.9-2,2-2l0,0c1.1,0,2,0.9,2,2l0,0C962,15.1,961.1,16,960,16z"/>
		<path class="st15" d="M960,28L960,28c-1.1,0-2-0.9-2-2l0,0c0-1.1,0.9-2,2-2l0,0c1.1,0,2,0.9,2,2l0,0C962,27.1,961.1,28,960,28z"/>
		<path class="st15" d="M960,22L960,22c-1.1,0-2-0.9-2-2l0,0c0-1.1,0.9-2,2-2l0,0c1.1,0,2,0.9,2,2l0,0C962,21.1,961.1,22,960,22z"/>
	</g>
</g>
<path id="Rounded_Rectangle_1" class="st1" d="M1003.9,16.1c0.4,0.4,0.4,1,0,1.4l-6.4,6.4c-0.4,0.4-1,0.4-1.4,0s-0.4-1,0-1.4
	l6.4-6.4C1002.9,15.7,1003.5,15.7,1003.9,16.1z M996.3,16.3c0.4-0.4,1-0.4,1.3,0l0,0l6.1,6.1c0.4,0.4,0.3,1,0,1.3
	c-0.4,0.3-0.9,0.3-1.3,0l-6.1-6.1C995.9,17.3,995.9,16.7,996.3,16.3C996.2,16.3,996.3,16.3,996.3,16.3z"/>
<rect x="1035" y="17" class="st16" width="10" height="6"/>
<rect x="1075" y="16" class="st16" width="10" height="8"/>
<g>
	<polygon class="st4" points="1129.2,18.2 1129.2,18.2 1129.3,18.2 	"/>
	<polygon class="st4" points="1121.4,24.2 1121.4,12.5 1119.4,18 1113.6,18.2 1118.1,21.9 1116.6,27.5 	"/>
</g>
<g>
	<path class="st4" d="M122.4,51.5c-6.4,0-11.6,5.2-11.6,11.6c0,6.4,5.2,11.6,11.6,11.6c6.4,0,11.6-5.2,11.6-11.6
		C134,56.7,128.8,51.5,122.4,51.5z M122.4,72.2c-5,0-9-4.1-9-9c0-5,4.1-9,9-9c4.9,0,8.9,4,9,9C131.4,68.2,127.3,72.2,122.4,72.2z"/>
	<polygon class="st4" points="119.2,67.8 119.2,58.4 127.5,63.1 	"/>
</g>
</svg>
