<?xml version="1.0" encoding="utf-8"?>
<!-- Generator: Adobe Illustrator 16.0.0, SVG Export Plug-In . SVG Version: 6.00 Build 0)  -->
<!DOCTYPE svg PUBLIC "-//W3C//DTD SVG 1.1//EN" "http://www.w3.org/Graphics/SVG/1.1/DTD/svg11.dtd">
<svg version="1.1" id="Layer_1" xmlns="http://www.w3.org/2000/svg" xmlns:xlink="http://www.w3.org/1999/xlink" x="0px" y="0px"
	 width="200px" height="240px" viewBox="0 0 200 240" enable-background="new 0 0 200 240" xml:space="preserve">
<path fill="#3B4851" d="M50.9,12v6h2v-4h4v-2h-4.4H50.9z M67.2,12h-4.3v2h4v4h2v-6H67.2z M66.9,26h-4v2h6v-6h-2V26z M52.9,22h-2v6h6
	v-2h-4V22z"/>
<g>
	<defs>
		<rect id="SVGID_1_" width="200" height="240"/>
	</defs>
	<clipPath id="SVGID_2_">
		<use xlink:href="#SVGID_1_"  overflow="visible"/>
	</clipPath>
	<path clip-path="url(#SVGID_2_)" fill="#3B4851" d="M140.9,11c-4.4,0-8,3.6-8,8c0,1.9,0.6,3.6,1.7,4.9l-3.7,3.7l1.3,1.3l3.7-3.7
		c1.399,1.1,3.1,1.7,4.899,1.7c4.4,0,8-3.6,8-8S145.3,11,140.9,11 M140.9,25.2c-3.4,0-6.2-2.8-6.2-6.2s2.8-6.2,6.2-6.2
		c3.399,0,6.2,2.8,6.2,6.2S144.3,25.2,140.9,25.2 M141.9,15h-2v3h-3v2h3v3h2v-3h3v-2h-3V15z"/>
	<path clip-path="url(#SVGID_2_)" fill="#3B4851" d="M106.4,56.1c-1.101,0.3-2.4,0.4-3.4-1.7c-0.6-1.3-1.399-1.9-1.899-2.2H101
		c-0.3-0.2-0.5-0.2-0.5-0.2v0.1L99.6,52v11c-0.6-0.3-1.3-0.5-2.1-0.5c-2,0-3.3,1.4-3.3,2.9s1.4,2.7,3.3,2.7c2,0,3.7-1.2,3.7-2.7v-9
		c0.4,0.1,1.1,1.6,2.5,1.6C104.8,57.8,105.9,57.2,106.4,56.1 M103.9,62.1h6v1.7h-6V62.1z M95.9,56.1h-2.2V54H92v2.1h-2.1v1.7H92V60
		h1.7v-2.2h2.2V56.1z"/>
	<path clip-path="url(#SVGID_2_)" fill="#3B4851" d="M96.9,18v-6h-2v4h-4v2h4.3H96.9z M104.5,18h4.4v-2h-4v-4h-2v6H104.5z M104.9,24
		h4v-2h-6v6h2V24z M94.9,28h2v-6h-6v2h4V28z M12.9,13h2v14h-2V13z M16.9,20l11,7V13L16.9,20z M99.9,91v1.5c4.1,0,7.5,3.4,7.5,7.5
		s-3.4,7.5-7.5,7.5c-4.1,0-7.5-3.4-7.5-7.5h-1.5c0,5,4,9,9,9s9-4,9-9S104.8,91,99.9,91 M99.9,95.7c1.5,0,2.6,0.9,2.6,2.3
		c0,0.8-0.5,1.5-1.2,1.7c0.9,0.2,1.5,1,1.5,2c0,1.6-1.199,2.7-3,2.7s-2.9-1.1-2.9-2.8v-0.2h1.3c0,1.2,0.6,1.8,1.6,1.8
		c0.9,0,1.5-0.6,1.5-1.5c0-1-0.8-1.4-1.7-1.4h-0.4v-1h0.1c0.8,0,1.7-0.1,1.7-1.2c0-0.7-0.5-1.2-1.3-1.2c-0.9,0-1.4,0.6-1.4,1.7H97
		C97.2,96.7,98.2,95.7,99.9,95.7"/>
	<path clip-path="url(#SVGID_2_)" fill="#3B4851" d="M63.9,53.7h-2.3l1.8-2.2h-1.5l-3,3.1l3,3.1h1.5l-1.9-2.3h2.4
		c2.5,0,4.5,2.1,4.5,4.7s-2,4.7-4.5,4.7h-1v1.6h1c3.3,0,6-2.8,6-6.3S67.2,53.7,63.9,53.7 M60.8,65.5l-3-3.1h-1.5l1.8,2.2h-2.2
		c-2.5,0-4.5-2.1-4.5-4.7s2-4.7,4.5-4.7h1v-1.6h-1c-3.3,0-6,2.8-6,6.3s2.7,6.3,6,6.3h2.4l-1.9,2.4h1.5L60.8,65.5z"/>
	<polygon clip-path="url(#SVGID_2_)" fill="#FFFFFF" points="13.9,102.4 19.2,97 13.9,91.6 14.6,90.9 19.9,96.4 25.2,90.9 
		25.9,91.6 20.6,97 25.9,102.4 25.2,103.1 19.9,97.6 14.6,103.1 	"/>
	<polygon clip-path="url(#SVGID_2_)" fill="#DBDCE0" points="175,104.4 179.301,100 175,95.6 175.7,94.9 180,99.4 184.301,94.9 
		185,95.6 180.7,100 185,104.4 184.301,105.1 180,100.6 175.7,105.1 	"/>
	<path clip-path="url(#SVGID_2_)" fill="#3B4851" d="M69,93.1h1.8v13.8H69V93.1z M55,93.1h15.8v1.8H55V93.1z M55,105.1h15.8v1.8H55
		V105.1z M49,96.1h1.8v7.8H49V96.1z M52.9,97.9l2.1-3v-1.8l-2.1,3V97.9z M52.9,102.1l2.1,3v1.8l-2.2-3L52.9,102.1z M50.8,102.1h2.1
		v1.8h-2.1V102.1z M50.8,96.1h2.1v1.8h-2.1V96.1z M66,91.3h1.8v1.8H66V91.3z M61,91.3h1.8v1.8H61V91.3z M56,91.3h1.8v1.8H56V91.3z
		 M66,106.9h1.8v1.8H66V106.9z M61,106.9h1.8v1.8H61V106.9z M56,106.9h1.8v1.8H56V106.9z M57,97.1h9.8v1.8H57V97.1z M57,101.1h9.8
		v1.8H57V101.1z"/>
	<polygon clip-path="url(#SVGID_2_)" fill="#3B4851" points="130.9,136 130.9,144 135.9,144 141.2,149 141.2,131 135.9,136 	"/>
	<polygon clip-path="url(#SVGID_2_)" fill="#303030" points="148.9,137.8 147.601,136.4 145.5,138.6 143.3,136.4 142,137.8 
		144.2,140 142,142.3 143.3,143.6 145.5,141.4 147.601,143.6 148.9,142.3 146.8,140 	"/>
	<polygon clip-path="url(#SVGID_2_)" fill="#3B4851" points="10.9,136 10.9,144 15.9,144 21.2,149 21.2,131 15.9,136 	"/>
	<path clip-path="url(#SVGID_2_)" fill="#303030" d="M25.5,140c0-1.5-1.2-2.7-2.6-2.7v5.4C24.3,142.7,25.5,141.5,25.5,140"/>
	<path clip-path="url(#SVGID_2_)" fill="#303030" d="M22.9,132.9v1.8c2.4,0.399,4.3,2.6,4.3,5.3s-1.9,4.9-4.3,5.3v1.8
		c3.4-0.399,6-3.5,6-7.1S26.3,133.3,22.9,132.9"/>
	<polygon clip-path="url(#SVGID_2_)" fill="#3B4851" points="50.9,136 50.9,144 55.9,144 61.2,149 61.2,131 55.9,136 	"/>
	<path clip-path="url(#SVGID_2_)" fill="#303030" d="M65.5,140c0-1.5-1.2-2.7-2.6-2.7v5.4C64.3,142.7,65.5,141.5,65.5,140"/>
	<polygon clip-path="url(#SVGID_2_)" fill="#3B4851" points="90.9,136 90.9,144 95.9,144 101.2,149 101.2,131 95.9,136 	"/>
	
		<circle clip-path="url(#SVGID_2_)" fill="none" stroke="#3B4851" stroke-width="2" stroke-miterlimit="10" cx="20" cy="60" r="14"/>
	<rect x="22" y="53" clip-path="url(#SVGID_2_)" fill="#3B4851" width="4" height="14"/>
	<rect x="14" y="53" clip-path="url(#SVGID_2_)" fill="#3B4851" width="4" height="14"/>
	<polygon clip-path="url(#SVGID_2_)" fill="#3B4851" points="22,169.5 22,169.5 22,170 20,170 18,170 18,169.8 17.6,170.7 18,171.4 
		18,172 18.1,172 18.7,173.2 19.2,172 20.8,172 27,187 13,187 15.2,181.5 14,179.5 11,187 12,189 28,189 29,186.8 	"/>
	<polygon clip-path="url(#SVGID_2_)" fill="#3B4851" points="22,185 15,172 13,172 20,185 	"/>
	<polygon clip-path="url(#SVGID_2_)" fill="#FFFFFF" points="139,98 141,98 141,99 144,99 144,98 143,98 143,97 142,97 142,96 
		141,96 141,95 140,95 139,95 139,96 138,96 138,97 137,97 137,98 136,98 136,99 139,99 	"/>
	<polygon clip-path="url(#SVGID_2_)" fill="#D3D9DD" points="139,61 139,59 140,59 140,56 139,56 139,57 138,57 138,58 137,58 
		137,59 136,59 136,60 136,61 137,61 137,62 138,62 138,63 139,63 139,64 140,64 140,61 	"/>
	<polygon clip-path="url(#SVGID_2_)" fill="#D3D9DD" points="144,61 144,59 145,59 145,56 144,56 144,57 143,57 143,58 142,58 
		142,59 141,59 141,60 141,61 142,61 142,62 143,62 143,63 144,63 144,64 145,64 145,61 	"/>
	<polygon clip-path="url(#SVGID_2_)" fill="#FFFFFF" points="139,103 141,103 141,102 144,102 144,103 143,103 143,104 142,104 
		142,105 141,105 141,106 140,106 139,106 139,105 138,105 138,104 137,104 137,103 136,103 136,102 139,102 	"/>
	<polygon clip-path="url(#SVGID_2_)" fill="#303030" points="144,179.502 144.006,179.499 137.006,173.999 137.006,176.006 
		142,180.002 142,180.011 137.006,184.007 137.006,185.999 144.006,180.499 144,180.498 	"/>
	<polygon clip-path="url(#SVGID_2_)" fill="#303030" points="183.542,173.979 177.459,181.021 174.459,177.021 172.459,177.021 
		176.959,183.021 177.959,183.021 185.542,173.979 	"/>
	<path clip-path="url(#SVGID_2_)" fill="#DBDCE0" d="M107.998,181.5v-3h-2.197c-0.141-0.549-0.356-1.067-0.638-1.543l1.553-1.553
		l-2.122-2.122l-1.553,1.554c-0.476-0.282-0.994-0.498-1.543-0.639V172h-3v2.197c-0.549,0.141-1.067,0.356-1.543,0.638l-1.553-1.553
		l-2.122,2.122l1.553,1.553c-0.281,0.476-0.497,0.994-0.638,1.543h-2.197v3h2.197c0.141,0.549,0.357,1.067,0.638,1.543l-1.553,1.553
		l2.122,2.122l1.553-1.553c0.476,0.281,0.994,0.497,1.543,0.638V188h3v-2.197c0.549-0.141,1.067-0.356,1.543-0.639l1.553,1.554
		l2.122-2.122l-1.553-1.553c0.281-0.476,0.497-0.994,0.638-1.543H107.998z M99.998,183c-1.657,0-3-1.343-3-3s1.343-3,3-3
		c1.657,0,3,1.343,3,3S101.655,183,99.998,183"/>
	<path clip-path="url(#SVGID_2_)" fill="#3B4851" d="M67.994,181.5v-3h-2.197c-0.141-0.549-0.357-1.067-0.638-1.543l1.553-1.553
		l-2.122-2.122l-1.553,1.554c-0.476-0.282-0.994-0.498-1.543-0.639V172h-3v2.197c-0.549,0.141-1.067,0.356-1.543,0.638l-1.553-1.553
		l-2.122,2.122l1.553,1.553c-0.281,0.476-0.497,0.994-0.638,1.543h-2.197v3h2.197c0.141,0.549,0.357,1.067,0.638,1.543l-1.553,1.553
		l2.122,2.122l1.553-1.553c0.476,0.281,0.994,0.497,1.543,0.638V188h3v-2.197c0.549-0.141,1.067-0.356,1.543-0.639l1.553,1.554
		l2.122-2.122l-1.553-1.553c0.281-0.476,0.497-0.994,0.638-1.543H67.994z M59.994,183c-1.657,0-3-1.343-3-3s1.343-3,3-3
		c1.657,0,3,1.343,3,3S61.651,183,59.994,183"/>
	<path clip-path="url(#SVGID_2_)" fill="#DBDCE0" d="M15,213h10c1.105,0,2,0.895,2,2v10c0,1.105-0.895,2-2,2H15
		c-1.105,0-2-0.895-2-2v-10C13,213.895,13.895,213,15,213"/>
	<path clip-path="url(#SVGID_2_)" fill="#303030" d="M54.994,213h10c1.105,0,2,0.895,2,2v10c0,1.105-0.895,2-2,2h-10
		c-1.105,0-2-0.895-2-2v-10C52.994,213.895,53.889,213,54.994,213"/>
	<polygon clip-path="url(#SVGID_2_)" fill="#EDEEF0" points="54.994,221 55.994,220 57.994,222 63.994,216 64.994,217 57.994,224 	
		"/>
	<path clip-path="url(#SVGID_2_)" fill="#DBDCE0" d="M105,218.501c-0.828,0-1.5-0.673-1.5-1.5c0-0.829,0.672-1.5,1.5-1.5
		c0.829,0,1.5,0.671,1.5,1.5C106.5,217.828,105.829,218.501,105,218.501 M104.5,214.551v-1.05c0-0.276,0.224-0.5,0.5-0.5
		s0.5,0.224,0.5,0.5v1.05c-0.161-0.033-0.329-0.05-0.5-0.05S104.661,214.518,104.5,214.551 M100,222.501c-0.828,0-1.5-0.673-1.5-1.5
		c0-0.829,0.672-1.5,1.5-1.5c0.829,0,1.5,0.671,1.5,1.5C101.5,221.828,100.829,222.501,100,222.501 M99.5,218.551v-5.05
		c0-0.276,0.224-0.5,0.5-0.5c0.276,0,0.5,0.224,0.5,0.5v5.05c-0.161-0.033-0.328-0.05-0.5-0.05
		C99.829,218.501,99.661,218.518,99.5,218.551 M95,220.501c-0.828,0-1.5-0.673-1.5-1.5c0-0.829,0.672-1.5,1.5-1.5
		c0.829,0,1.5,0.671,1.5,1.5C96.5,219.828,95.829,220.501,95,220.501 M94.5,216.551v-3.05c0-0.276,0.224-0.5,0.5-0.5
		s0.5,0.224,0.5,0.5v3.05c-0.161-0.033-0.328-0.05-0.5-0.05C94.829,216.501,94.661,216.518,94.5,216.551 M95.5,221.449v5.052
		c0,0.275-0.224,0.5-0.5,0.5s-0.5-0.225-0.5-0.5v-5.052c0.161,0.033,0.329,0.052,0.5,0.052
		C95.172,221.501,95.339,221.482,95.5,221.449 M100.5,223.449v3.052c0,0.275-0.224,0.5-0.5,0.5c-0.276,0-0.5-0.225-0.5-0.5v-3.052
		c0.161,0.033,0.329,0.052,0.5,0.052C100.172,223.501,100.339,223.482,100.5,223.449 M105.5,219.449v7.052
		c0,0.275-0.224,0.5-0.5,0.5s-0.5-0.225-0.5-0.5v-7.052c0.161,0.033,0.329,0.052,0.5,0.052S105.339,219.482,105.5,219.449"/>
	<polygon clip-path="url(#SVGID_2_)" fill="#DBDCE0" points="145.5,218 140,223.5 134.5,218 136,216.5 140,220.5 144,216.5 	"/>
	<path clip-path="url(#SVGID_2_)" fill="#3B4851" d="M190.913,140c0-6.032-4.881-10.913-10.913-10.913s-10.913,4.881-10.913,10.913
		s4.881,10.913,10.913,10.913S190.913,146.032,190.913,140 M171.486,140c0-4.703,3.811-8.514,8.514-8.514
		c4.233,0,7.734,3.092,8.394,7.139h-8.595v2.75h8.595c-0.658,4.047-4.16,7.139-8.394,7.139
		C175.297,148.514,171.486,144.703,171.486,140"/>
	<path clip-path="url(#SVGID_2_)" fill="#303030" d="M180.924,25.265c-7.43,0.165-4.623-6.027-3.467-7.678
		c-0.166,1.404,0.33,2.312,0.99,2.807c0-1.321,0.082-3.137,1.65-4.211c0.166,1.734,0.248,3.138,0.743,4.046
		c0.496-1.156,0.661-3.55-1.073-6.522C184.309,15.193,188.354,25.1,180.924,25.265"/>
</g>
</svg>
