<?xml version="1.0" encoding="utf-8"?>
<!-- Generator: Adobe Illustrator 15.1.0, SVG Export Plug-In . SVG Version: 6.00 Build 0)  -->
<!DOCTYPE svg PUBLIC "-//W3C//DTD SVG 1.1//EN" "http://www.w3.org/Graphics/SVG/1.1/DTD/svg11.dtd">
<svg version="1.1" id="Layer_1" xmlns="http://www.w3.org/2000/svg" xmlns:xlink="http://www.w3.org/1999/xlink" x="0px" y="0px"
	 width="1879.37px" height="116.22px" viewBox="0 0 1879.37 116.22" enable-background="new 0 0 1879.37 116.22"
	 xml:space="preserve">
<path fill-rule="evenodd" clip-rule="evenodd" fill="#EDEDEE" d="M1,0.305h1878v116H1V0.305z"/>
<path fill-rule="evenodd" clip-rule="evenodd" fill="#777F88" d="M255.18,91.306c-17.25-18-16.25-50.25,1-72
	c-2.51-8.444-3.143-12.306,0.758-19h234.447c10.858,5.496,25.121,10.598,36.795,11c0,10,0,79.75,0,95
	c-13.043-0.221-26.863,2.884-36.457,10H259.18C251.93,106.306,251.68,100.556,255.18,91.306z M442.18,104.306h11.938
	c4.971,0,9-4.029,9-9v-5.531c0-4.971-4.029-9-9-9H442.18V104.306z M442.18,37.993h11.938c4.971,0,9-4.029,9-9v-5.531
	c0-4.971-4.029-9-9-9H442.18V37.993z M383.367,104.306h47.062V80.774h-47.062V104.306z M383.367,37.993h47.062V14.461h-47.062
	V37.993z M324.523,104.306h47.062V80.774h-47.062V104.306z M324.523,37.993h47.062V14.461h-47.062V37.993z M290.555,95.306
	c0,4.971,4.029,9,9,9h13.219V80.774h-13.219c-4.971,0-9,4.029-9,9V95.306z M290.555,28.993c0,4.971,4.029,9,9,9h13.219V14.461
	h-13.219c-4.971,0-9,4.029-9,9V28.993z"/>
<g>
	<path fill-rule="evenodd" clip-rule="evenodd" fill="#C2C2C9" d="M1123.525,116.306c-3.617-18.911-5.525-38.471-5.525-58.5
		c0-19.677,1.847-38.899,5.342-57.5h751.762c2.56,18.741,3.896,37.942,3.896,57.5c0,19.907-1.393,39.442-4.043,58.5H1123.525z"/>
	<path fill-rule="evenodd" clip-rule="evenodd" fill="#FFFFFF" d="M1409,57.805c0-21.894,7.865-41.947,20.919-57.5h137.162
		c13.054,15.553,20.919,35.606,20.919,57.5c0,22.365-8.203,42.812-21.765,58.5h-135.471C1417.203,100.617,1409,80.17,1409,57.805z"
		/>
	<path fill-rule="evenodd" clip-rule="evenodd" fill="#777F88" d="M1418,57.805c0-22.527,9.257-42.889,24.17-57.5h112.66
		c14.913,14.611,24.17,34.973,24.17,57.5c0,23.045-9.686,43.826-25.205,58.5h-110.59C1427.686,101.631,1418,80.851,1418,57.805z"/>
</g>
</svg>
